:SAMPLES-PER-SECOND 30
:FULLY-SPECIFIED
:DEGREES
218
root  0.681559 33.2976 10.6919 -14.1142 -77.513 18.1471
RightUpLeg  -9.58891 -16.0536 -44.6557
RightLeg  14.5874 16.9048 4.42386
RightFoot  7.78852 -7.44207 42.5367
RightToes  -6.40286e-010 0 -3.6325e-017
Spine  27.4673 8.60873 15.7795
Spine1  -31.9153 9.62459 -17.1375
HEad  -47.4755 -25.5271 4.89706
LeftShoulder1  2.50107 23.5353 23.5736
LeftArm  -50.9521 -17.8696 14.1809
LeftForeArm  2.91174 1.28727 -0.254533
LeftHand  0.345985 6.37732 37.693
RightShoulder  0.766924 1.24623 8.76248
RightArm  -7.44101 -20.9242 -5.95565
RightForeArm  -20.2489 23.0594 6.13369
RightHand  -1.0279 0.0862393 -21.6923
LeftUpLeg  -32.5177 17.0873 19.301
LeftLeg  49.4625 -5.36119 -6.23547
LeftFoot  -17.5988 -1.52101 -29.1387
LeftToes  -2.09187e-010 -4.93792e-011 -8.21189e-011
219
root  0.90237 33.2288 9.5326 -17.3868 -79.8336 22.3239
RightUpLeg  -14.3014 -19.1149 -42.5183
RightLeg  18.9701 21.0684 7.71434
RightFoot  2.7708 -5.2937 41.0813
RightToes  -6.40286e-010 0 -3.6325e-017
Spine  27.7618 7.78024 12.5112
Spine1  -31.5473 8.82738 -12.0154
HEad  -44.9943 -22.4544 2.55592
LeftShoulder1  2.47136 22.579 24.1113
LeftArm  -51.1571 -16.1836 13.8079
LeftForeArm  5.66092 -1.44131 -0.609031
LeftHand  0.483758 6.68748 40.0245
RightShoulder  0.747375 0.686323 10.664
RightArm  -10.5319 -29.4209 0.00864603
RightForeArm  -17.4327 30.0878 7.40602
RightHand  -1.10342 0.174799 -22.9016
LeftUpLeg  -31.6571 19.044 21.1843
LeftLeg  46.7141 -4.87367 -5.09806
LeftFoot  -15.4408 -1.02565 -30.5491
LeftToes  -2.09187e-010 -4.93792e-011 -8.21189e-011
220
root  1.07573 33.2968 8.25143 -29.7719 -83.1838 35.8361
RightUpLeg  -20.4425 -22.0229 -38.8051
RightLeg  23.8767 24.4965 11.1879
RightFoot  -1.8858 -3.21234 37.3547
RightToes  -6.40286e-010 0 -3.6325e-017
Spine  27.6018 7.01125 8.3213
Spine1  -30.9486 8.00845 -5.34213
HEad  -41.8719 -18.018 -0.557673
LeftShoulder1  2.41689 21.6848 24.5079
LeftArm  -50.2187 -14.1769 13.5973
LeftForeArm  7.26287 -3.61846 -1.23216
LeftHand  0.813999 7.54429 41.0338
RightShoulder  0.73314 0.251965 12.5394
RightArm  -13.7059 -35.9071 6.87656
RightForeArm  -14.7126 36.2602 9.04219
RightHand  -1.09938 0.0830859 -23.1823
LeftUpLeg  -29.1456 22.0423 23.1106
LeftLeg  42.0064 -3.80974 -3.27973
LeftFoot  -11.7332 -0.041837 -32.265
LeftToes  -2.09187e-010 -4.93792e-011 -8.21189e-011
221
root  1.18509 33.4849 6.92831 -70.0689 -86.1952 77.7763
RightUpLeg  -27.3652 -22.3515 -33.8452
RightLeg  28.0586 25.9759 14.0415
RightFoot  -5.6739 -1.77885 34.2921
RightToes  -6.40286e-010 0 -3.6325e-017
Spine  27.051 5.98045 4.55729
Spine1  -30.8448 6.95745 1.48516
HEad  -37.3825 -12.1959 -4.9323
LeftShoulder1  2.42218 20.7087 25.3981
LeftArm  -48.8303 -12.7024 12.8757
LeftForeArm  8.04174 -4.79306 -1.8279
LeftHand  1.08994 8.29113 40.9912
RightShoulder  0.721215 -0.00518401 13.7724
RightArm  -16.5808 -40.9894 14.6474
RightForeArm  -13.0149 39.9616 10.1412
RightHand  -1.0288 -0.266484 -23.1622
LeftUpLeg  -25.3654 24.7962 25.6157
LeftLeg  35.4153 -1.52087 -0.814468
LeftFoot  -6.41169 1.55875 -34.2741
LeftToes  -2.09187e-010 -4.93792e-011 -8.21189e-011
222
root  1.2073 33.7063 5.61656 -140.117 -85.6275 150.09
RightUpLeg  -34.3265 -21.0949 -28.3395
RightLeg  31.276 25.7099 15.7041
RightFoot  -7.83771 -1.09868 33.3226
RightToes  -6.40286e-010 0 -3.6325e-017
Spine  25.9032 4.48162 1.70219
Spine1  -30.7383 5.61685 8.22294
HEad  -33.4468 -4.95873 -9.60674
LeftShoulder1  2.39186 19.6766 26.1981
LeftArm  -46.717 -11.6993 11.7683
LeftForeArm  8.56517 -4.6992 -2.27484
LeftHand  1.04607 8.21917 40.3745
RightShoulder  0.632224 -0.443351 13.8245
RightArm  -19.3764 -44.9306 22.5614
RightForeArm  -12.0985 40.8984 10.423
RightHand  -0.95566 -0.641765 -23.194
LeftUpLeg  -21.0071 25.5545 28.9943
LeftLeg  27.8647 3.04124 2.04864
LeftFoot  -0.133696 3.71894 -36.6242
LeftToes  -2.09187e-010 -4.93792e-011 -8.21189e-011
223
root  1.184 33.8786 4.32684 -166.471 -81.978 179
RightUpLeg  -40.7591 -19.9979 -22.7161
RightLeg  33.6241 23.3102 15.6274
RightFoot  -8.30946 -0.957378 33.1159
RightToes  -6.40286e-010 0 -3.6325e-017
Spine  24.2577 2.70433 -1.16786
Spine1  -29.7593 4.04209 15.954
HEad  -31.6723 2.87629 -14.0823
LeftShoulder1  2.24998 18.8561 26.0692
LeftArm  -43.4243 -10.674 10.6756
LeftForeArm  8.3961 -3.45404 -2.70754
LeftHand  0.733364 7.43471 39.1275
RightShoulder  0.450555 -1.23946 13.0352
RightArm  -20.984 -47.2597 28.2986
RightForeArm  -11.248 40.0179 10.0732
RightHand  -0.920327 -0.73108 -22.7727
LeftUpLeg  -16.7069 23.1358 33.061
LeftLeg  20.7044 10.4413 4.59171
LeftFoot  6.79897 6.35085 -38.6346
LeftToes  -2.09187e-010 -4.93792e-011 -8.21189e-011
